<?xml version="1.0" encoding="utf-8"?>
<!-- Generator: Adobe Illustrator 19.0.0, SVG Export Plug-In . SVG Version: 6.00 Build 0)  -->
<svg version="1.1" id="Layer_1" xmlns="http://www.w3.org/2000/svg" xmlns:xlink="http://www.w3.org/1999/xlink" x="0px" y="0px"
	 viewBox="0 0 1024 78" style="enable-background:new 0 0 1024 78;" xml:space="preserve">
<style type="text/css">
	.st0{fill:#1A1A1A;}
	.st1{fill:#FFFFFF;}
</style>
<rect id="XMLID_1_" class="st0" width="1024" height="78"/>
<path id="XMLID_2_" class="st1" d="M89.8,19.3H34.3c-5.4,0-9.7,4.4-9.7,9.7V49c0,5.4,4.4,9.7,9.7,9.7h55.5c5.4,0,9.7-4.4,9.7-9.7V29
	C99.5,23.6,95.2,19.3,89.8,19.3z"/>
<path id="XMLID_4_" class="st1" d="M239.8,19.3h-55.5c-5.4,0-9.7,4.4-9.7,9.7V49c0,5.4,4.4,9.7,9.7,9.7h55.5c5.4,0,9.7-4.4,9.7-9.7
	V29C249.5,23.6,245.1,19.3,239.8,19.3z"/>
<path id="XMLID_5_" class="st1" d="M389.8,19.3h-55.5c-5.4,0-9.7,4.4-9.7,9.7V49c0,5.4,4.4,9.7,9.7,9.7h55.5c5.4,0,9.7-4.4,9.7-9.7
	V29C399.5,23.6,395.1,19.3,389.8,19.3z"/>
<path id="XMLID_7_" class="st1" d="M539.7,19.3h-55.5c-5.4,0-9.7,4.4-9.7,9.7V49c0,5.4,4.4,9.7,9.7,9.7h55.5c5.4,0,9.7-4.4,9.7-9.7
	V29C549.5,23.6,545.1,19.3,539.7,19.3z"/>
<path id="XMLID_6_" class="st1" d="M689.7,19.3h-55.5c-5.4,0-9.7,4.4-9.7,9.7V49c0,5.4,4.4,9.7,9.7,9.7h55.5c5.4,0,9.7-4.4,9.7-9.7
	V29C699.5,23.6,695.1,19.3,689.7,19.3z"/>
<path id="XMLID_9_" class="st1" d="M839.7,19.3h-55.5c-5.4,0-9.7,4.4-9.7,9.7V49c0,5.4,4.4,9.7,9.7,9.7h55.5c5.4,0,9.7-4.4,9.7-9.7
	V29C849.5,23.6,845.1,19.3,839.7,19.3z"/>
<path id="XMLID_8_" class="st1" d="M989.7,19.3h-55.5c-5.4,0-9.7,4.4-9.7,9.7V49c0,5.4,4.4,9.7,9.7,9.7h55.5c5.4,0,9.7-4.4,9.7-9.7
	V29C999.5,23.6,995.1,19.3,989.7,19.3z"/>
</svg>
